# xmcd
#
# Track frame offsets: 
#        150
#        17121
#        39751
#        55821
#        72124
#        89595
#        105161
#        117991
#        134168
#        151525
#        166915
#        180661
#
# Disc length: 2653 seconds
#
# Revision: 0
# Processed by: cddbd v1.5.2PL0 Copyright (c) Steve Scherf et al.
# Submitted via: ExactAudioCopy v0.99pb4
#
DISCID=900a5b0c
DTITLE=Howlin' Bill - Date With The Devil
DYEAR=2012
DGENRE=Blues
TTITLE0=Rat Race
TTITLE1=Turn Out the Light
TTITLE2=Bellboy John
TTITLE3=My Baby
TTITLE4=A Date with the Devil
TTITLE5=Night Nurse
TTITLE6=Fifteen Years
TTITLE7=Howl
TTITLE8=So Close
TTITLE9=Get Outta My Life
TTITLE10=Bill's Day Off
TTITLE11=Hurt my Child
EXTD=
EXTT0=
EXTT1=
EXTT2=
EXTT3=
EXTT4=
EXTT5=
EXTT6=
EXTT7=
EXTT8=
EXTT9=
EXTT10=
EXTT11=
PLAYORDER=
